<svg width="54" height="54" viewBox="0 0 54 54" fill="none" xmlns="http://www.w3.org/2000/svg">
<rect x="12" y="13" width="30" height="30" fill="white"/>
<path d="M0.75 27C0.75 23.5528 1.42898 20.1394 2.74816 16.9546C4.06735 13.7698 6.00091 10.876 8.43845 8.43845C10.876 6.00091 13.7698 4.06735 16.9546 2.74816C20.1394 1.42898 23.5528 0.75 27 0.75C30.4472 0.75 33.8606 1.42898 37.0454 2.74816C40.2302 4.06735 43.124 6.00091 45.5616 8.43845C47.9991 10.876 49.9327 13.7698 51.2518 16.9546C52.571 20.1394 53.25 23.5528 53.25 27C53.25 33.9619 50.4844 40.6387 45.5616 45.5616C40.6387 50.4844 33.9619 53.25 27 53.25C20.0381 53.25 13.3613 50.4844 8.43845 45.5616C3.51562 40.6387 0.75 33.9619 0.75 27ZM27 13.875C26.4198 13.875 25.8634 14.1055 25.4532 14.5157C25.043 14.9259 24.8125 15.4823 24.8125 16.0625V24.8125H16.0625C15.4823 24.8125 14.9259 25.043 14.5157 25.4532C14.1055 25.8634 13.875 26.4198 13.875 27C13.875 27.5802 14.1055 28.1366 14.5157 28.5468C14.9259 28.957 15.4823 29.1875 16.0625 29.1875H24.8125V37.9375C24.8125 38.5177 25.043 39.0741 25.4532 39.4843C25.8634 39.8945 26.4198 40.125 27 40.125C27.5802 40.125 28.1366 39.8945 28.5468 39.4843C28.957 39.0741 29.1875 38.5177 29.1875 37.9375V29.1875H37.9375C38.5177 29.1875 39.0741 28.957 39.4843 28.5468C39.8945 28.1366 40.125 27.5802 40.125 27C40.125 26.4198 39.8945 25.8634 39.4843 25.4532C39.0741 25.043 38.5177 24.8125 37.9375 24.8125H29.1875V16.0625C29.1875 15.4823 28.957 14.9259 28.5468 14.5157C28.1366 14.1055 27.5802 13.875 27 13.875Z" fill="#3540E6"/>
</svg>
