<svg width="38" height="38" viewBox="0 0 38 38" fill="none" xmlns="http://www.w3.org/2000/svg">
<circle cx="19" cy="19" r="19" fill="#EC2F2F"/>
<path d="M10.9615 9.94338C10.5739 9.94338 10.2022 10.0902 9.92807 10.3515C9.65398 10.6128 9.5 10.9672 9.5 11.3367V12.73C9.5 13.0996 9.65398 13.454 9.92807 13.7153C10.2022 13.9766 10.5739 14.1234 10.9615 14.1234H11.6923V26.6634C11.6923 27.4025 12.0003 28.1113 12.5485 28.6339C13.0966 29.1565 13.8401 29.45 14.6154 29.45H23.3846C24.1599 29.45 24.9034 29.1565 25.4515 28.6339C25.9997 28.1113 26.3077 27.4025 26.3077 26.6634V14.1234H27.0385C27.4261 14.1234 27.7978 13.9766 28.0719 13.7153C28.346 13.454 28.5 13.0996 28.5 12.73V11.3367C28.5 10.9672 28.346 10.6128 28.0719 10.3515C27.7978 10.0902 27.4261 9.94338 27.0385 9.94338H21.9231C21.9231 9.57385 21.7691 9.21945 21.495 8.95815C21.2209 8.69685 20.8492 8.55005 20.4615 8.55005H17.5385C17.1508 8.55005 16.7791 8.69685 16.505 8.95815C16.2309 9.21945 16.0769 9.57385 16.0769 9.94338H10.9615ZM15.3462 15.5167C15.54 15.5167 15.7258 15.5901 15.8629 15.7208C15.9999 15.8514 16.0769 16.0286 16.0769 16.2134V25.9667C16.0769 26.1515 15.9999 26.3287 15.8629 26.4593C15.7258 26.59 15.54 26.6634 15.3462 26.6634C15.1523 26.6634 14.9665 26.59 14.8294 26.4593C14.6924 26.3287 14.6154 26.1515 14.6154 25.9667V16.2134C14.6154 16.0286 14.6924 15.8514 14.8294 15.7208C14.9665 15.5901 15.1523 15.5167 15.3462 15.5167V15.5167ZM19 15.5167C19.1938 15.5167 19.3797 15.5901 19.5167 15.7208C19.6538 15.8514 19.7308 16.0286 19.7308 16.2134V25.9667C19.7308 26.1515 19.6538 26.3287 19.5167 26.4593C19.3797 26.59 19.1938 26.6634 19 26.6634C18.8062 26.6634 18.6203 26.59 18.4833 26.4593C18.3462 26.3287 18.2692 26.1515 18.2692 25.9667V16.2134C18.2692 16.0286 18.3462 15.8514 18.4833 15.7208C18.6203 15.5901 18.8062 15.5167 19 15.5167V15.5167ZM23.3846 16.2134V25.9667C23.3846 26.1515 23.3076 26.3287 23.1706 26.4593C23.0335 26.59 22.8477 26.6634 22.6538 26.6634C22.46 26.6634 22.2742 26.59 22.1371 26.4593C22.0001 26.3287 21.9231 26.1515 21.9231 25.9667V16.2134C21.9231 16.0286 22.0001 15.8514 22.1371 15.7208C22.2742 15.5901 22.46 15.5167 22.6538 15.5167C22.8477 15.5167 23.0335 15.5901 23.1706 15.7208C23.3076 15.8514 23.3846 16.0286 23.3846 16.2134V16.2134Z" fill="white"/>
</svg>
