<svg width="38" height="38" viewBox="0 0 38 38" fill="none" xmlns="http://www.w3.org/2000/svg">
<circle cx="19" cy="19" r="19" fill="#3540E6"/>
<path d="M15.2594 28.8138L26.1847 17.4135L20.9954 11.9986L10.0702 23.3989C9.91975 23.556 9.81291 23.7527 9.76096 23.9681L8.55005 30.4L14.7128 29.1364C14.9197 29.0824 15.109 28.9708 15.2594 28.8138V28.8138ZM29.7116 13.7332C30.1524 13.2731 30.4 12.6492 30.4 11.9986C30.4 11.348 30.1524 10.7241 29.7116 10.264L27.8471 8.31833C27.4061 7.85837 26.8082 7.59998 26.1847 7.59998C25.5612 7.59998 24.9633 7.85837 24.5223 8.31833L22.6578 10.264L27.8471 15.6789L29.7116 13.7332Z" fill="white"/>
</svg>
